<?xml version="1.0" encoding="UTF-8"?>
<svg id="_레이어_1" data-name="레이어 1" xmlns="http://www.w3.org/2000/svg" viewBox="0 0 470 470">
  <defs>
    <style>
      .cls-1 {
        fill: #323333;
        stroke: #4c9bd5;
      }

      .cls-1, .cls-2 {
        stroke-miterlimit: 10;
        stroke-width: 20px;
      }

      .cls-2 {
        fill: #246fb8;
        stroke: #f5f5f5;
      }
    </style>
  </defs>
  <path class="cls-1" d="M68.88,10h196.48c107.42,0,194.64,87.21,194.64,194.64v67.84c0,103.5-84.03,187.53-187.53,187.53H69.82c-33.02,0-59.82-26.81-59.82-59.82V68.88c0-32.5,26.38-58.88,58.88-58.88Z"/>
  <path class="cls-2" d="M307.57,114.65l15.17,246.67c1.48,24.13-22.7,41.55-45.12,32.51h0c-18.13-7.32-30.51-24.34-31.87-43.84l-1.28-18.35c-.31-4.42-3.11-8.27-7.22-9.93l-95.71-38.61c-4.11-1.66-8.8-.83-12.09,2.14l-13.65,12.32c-14.52,13.1-35.24,16.77-53.37,9.46h0c-22.42-9.04-27.74-38.37-9.93-54.72L234.59,85.21c12.38-11.36,30.2-14.6,45.78-8.31h0c15.59,6.29,26.17,20.98,27.2,37.75ZM244.82,246.58h0c-.65-29.16-35.89-43.37-56.59-22.83h0c-5.9,5.86-3.89,15.84,3.82,18.95l36.86,14.87c7.71,3.11,16.09-2.68,15.91-10.99Z"/>
  <circle class="cls-2" cx="390.83" cy="235" r="37.5"/>
</svg>